<svg xmlns="http://www.w3.org/2000/svg" data-name="Layer 1" viewBox="0 0 100 100" x="0px" y="0px">
    <path
        d="M89,41.34c-.59-1.77-4.08-2.46-7.22-2.71V31.29c0-3.34-1.33-6.2-2.74-6.2h0c.89,0,1.67,0,1.67-2.22s-1.15-2.21-2.12-2.21H65.71V8.58A1.77,1.77,0,0,0,64,6.82H35.62a1.76,1.76,0,0,0-1.76,1.76V20.66H21.37c-1,0-2.12,0-2.12,2.21s.78,2.22,1.67,2.22c-1.41,0-2.74,2.86-2.74,6.2v7.34c-3.14.25-6.63.94-7.22,2.71-1.28,3.86-.83,32.21.41,37C13,84.46,19,88.53,23.16,88.72h.3l.88,4.45h4.75L30,88.73H70l.88,4.45h4.75l.88-4.45h.3C81,88.53,87,84.46,88.63,78.31,89.87,73.55,90.32,45.2,89,41.34ZM38.87,13H60.69v7.66H38.87ZM73.79,40.67H26.21A3.58,3.58,0,0,0,23.46,42,3.58,3.58,0,0,1,27,38.53H73A3.58,3.58,0,0,1,76.54,42,3.58,3.58,0,0,0,73.79,40.67Z" />
</svg>